Patient4_TMGait_0pt7_02_left_30_GRF.mot
version=1
nRows=45
nColumns=19
inDegrees=no
endheader
time	F1x	F1y	F1z	M1x	M1y	M1z	F2x	F2y	F2z	M2x	M2y	M2z	EC1x	EC1y	EC1z	EC2x	EC2y	EC2z
34.24	-23.315	0.91795	-9.9756	-0.86602	3.0049	21.609	16.6888	691.0524	-69.1445	238.9286	84.1743	753.3608	-0.0592	0.0182	-0.0073	-0.0462	0.0165	0.9585
34.2518	-15.3747	1.1935	-6.398	-0.82614	1.7684	14.8807	4.5153	695.4786	-68.465	241.9925	83.4097	757.0451	-0.0592	0.0182	-0.0073	-0.0462	0.0165	0.9585
34.2636	-8.8806	1.5097	-3.4926	-0.81087	0.77846	9.436	-5.3191	701.9546	-67.3762	245.7432	81.9225	761.5927	-0.0592	0.0182	-0.0073	-0.0462	0.0165	0.9585
34.2754	-4.0781	1.811	-1.3471	-0.81468	0.048322	5.4821	-12.2247	710.6247	-65.9102	250.1448	79.7659	767.1546	-0.0592	0.0182	-0.0073	-0.0462	0.0165	0.9585
34.2871	-0.86322	2.0879	0.073276	-0.83711	-0.42929	2.938	-16.1482	721.2097	-64.1964	255.0753	77.0839	773.5348	-0.0592	0.0182	-0.0073	-0.0462	0.0165	0.9585
34.2989	1.0325	2.3248	0.91253	-0.86866	-0.7143	1.5486	-17.5041	733.1637	-62.4325	260.3351	74.1135	780.3997	-0.0592	0.0182	-0.0073	-0.0462	0.0165	0.9585
34.3107	1.9497	2.5162	1.3139	-0.90101	-0.8496	0.9765	-16.7478	745.7234	-60.7076	265.6614	70.9688	787.1546	-0.0592	0.0182	-0.0073	-0.0462	0.0165	0.9585
34.3225	2.1784	2.6447	1.4358	-0.9211	-0.90639	0.9224	-14.4865	758.101	-59.1768	270.7715	67.8529	793.2406	-0.0592	0.0182	-0.0073	-0.0462	0.0165	0.9585
34.3343	1.9945	2.6569	1.3976	-0.90666	-0.92652	1.0541	-11.2148	769.4983	-57.8407	275.3787	64.8145	798.0423	-0.0592	0.0182	-0.0073	-0.0462	0.0165	0.9585
34.3461	1.5411	2.5129	1.2906	-0.83803	-0.96174	1.152	-7.4465	779.1384	-56.8369	279.192	62.0579	800.9967	-0.0592	0.0182	-0.0073	-0.0462	0.0165	0.9585
34.3579	0.98903	2.1053	1.1832	-0.67939	-1.0378	0.95151	-3.5182	786.3234	-56.1529	281.9589	59.6193	801.5411	-0.0592	0.0182	-0.0073	-0.0462	0.0165	0.9585
34.3696	0.38391	1.3706	1.0966	-0.40329	-1.1636	0.34472	0.35802	790.5777	-55.8855	283.4992	57.6238	799.3273	-0.0592	0.0182	-0.0073	-0.0462	0.0165	0.9585
34.3814	-0.15877	0.20618	1.0601	0.026334	-1.3331	-0.84636	4.0924	791.6155	-55.987	283.7249	56.0295	794.1268	-0.0592	0.0182	-0.0073	-0.0462	0.0165	0.9585
34.3932	-0.6195	-1.3937	1.0367	0.61671	-1.4913	-2.6037	7.6805	789.5121	-56.4855	282.6749	54.8482	786.0772	-0.0592	0.0182	-0.0073	-0.0462	0.0165	0.9585
34.405	-0.85367	-3.4212	1.025	1.3591	-1.5766	-4.9485	11.1578	784.5816	-57.3116	280.4897	53.9939	775.4987	-0.0592	0.0182	-0.0073	-0.0462	0.0165	0.9585
34.4168	-0.81188	-5.6692	0.94852	2.1779	-1.4737	-7.5919	14.5524	777.3527	-58.4449	277.3889	53.4345	762.9178	-0.0592	0.0182	-0.0073	-0.0462	0.0165	0.9585
34.4286	-0.25737	-7.7929	0.77407	2.9367	-1.0552	-10.1544	17.892	768.4785	-59.8217	273.6437	53.1009	748.9689	-0.0592	0.0182	-0.0073	-0.0462	0.0165	0.9585
34.4404	0.93405	-9.0804	0.39825	3.3721	-0.14585	-11.7332	21.1445	758.6046	-61.3846	269.526	52.9469	734.2794	-0.0592	0.0182	-0.0073	-0.0462	0.0165	0.9585
34.4521	3.059	-8.5402	-0.23486	3.1066	1.43	-11.166	24.2646	748.318	-63.0767	265.2852	52.9381	719.4229	-0.0592	0.0182	-0.0073	-0.0462	0.0165	0.9585
34.4639	6.2248	-4.7016	-1.2109	1.5957	3.8231	-6.6291	27.1944	738.0304	-64.8001	261.1084	53.0053	704.7868	-0.0592	0.0182	-0.0073	-0.0462	0.0165	0.9585
34.4757	10.593	4.1995	-2.5454	-1.8262	7.1064	3.942	29.8971	727.905	-66.4692	257.0881	53.0939	690.5375	-0.0592	0.0182	-0.0073	-0.0462	0.0165	0.9585
34.4875	15.9405	20.2219	-4.2077	-7.9183	11.1634	23.0643	32.3711	717.7865	-67.9065	253.198	53.0547	676.5413	-0.0592	0.0182	-0.0073	-0.0462	0.0165	0.9585
34.4993	21.8352	45.2173	-6.0259	-17.3679	15.6089	52.9141	34.6068	707.1751	-68.9509	249.2785	52.7602	662.3736	-0.0592	0.0182	-0.0073	-0.0462	0.0165	0.9585
34.5111	27.0851	80.4012	-7.6624	-30.597	19.5888	95.024	36.6135	695.2652	-69.3518	245.0549	51.9936	647.3225	-0.0592	0.0182	-0.0073	-0.0462	0.0165	0.9585
34.5229	29.9244	125.3082	-8.4972	-47.3983	21.6847	148.8317	38.3307	681.0528	-68.9034	240.1717	50.601	630.5203	-0.0592	0.0182	-0.0073	-0.0462	0.0165	0.9585
34.5346	28.1473	177.4466	-7.6765	-66.78	20.0799	211.4841	39.6902	663.4611	-67.3829	234.2406	48.4166	611.0409	-0.0592	0.0182	-0.0073	-0.0462	0.0165	0.9585
34.5464	21.2795	232.7778	-4.2511	-87.1738	13.4612	278.1166	40.5918	641.5198	-64.6818	226.8987	45.3915	588.0548	-0.0592	0.0182	-0.0073	-0.0462	0.0165	0.9585
34.5582	10.8887	286.9455	2.3578	-106.9216	1.7624	343.3452	41.002	614.4935	-60.8037	217.8528	41.5585	560.9275	-0.0592	0.0182	-0.0073	-0.0462	0.0165	0.9585
34.57	-0.95949	336.5872	11.4901	-124.8455	-13.419	402.6759	40.8985	581.8902	-55.9099	206.8865	37.0755	529.2149	-0.0592	0.0182	-0.0073	-0.0462	0.0165	0.9585
34.5818	-12.7369	381.4031	21.6813	-140.9101	-29.715	455.4487	40.3049	543.5633	-50.27	193.8938	32.1744	492.7773	-0.0592	0.0182	-0.0073	-0.0462	0.0165	0.9585
34.5936	-23.4397	422.9367	31.4406	-155.79	-44.9874	503.3225	39.2039	499.7247	-44.1831	178.8964	27.1132	451.7762	-0.0592	0.0182	-0.0073	-0.0462	0.0165	0.9585
34.6054	-32.4294	462.8319	39.9137	-170.1569	-57.9739	548.2416	37.5639	450.9509	-37.9827	162.0477	22.1753	406.6915	-0.0592	0.0182	-0.0073	-0.0462	0.0165	0.9585
34.6171	-39.2152	501.6475	46.4521	-184.2707	-67.7726	590.8667	35.3178	398.1794	-31.9007	143.6459	17.5633	358.3334	-0.0592	0.0182	-0.0073	-0.0462	0.0165	0.9585
34.6289	-43.5186	538.9334	51.0018	-197.9699	-74.234	630.6863	32.3212	342.7591	-26.1541	124.1494	13.49	307.8956	-0.0592	0.0182	-0.0073	-0.0462	0.0165	0.9585
34.6407	-45.18	573.8662	53.9312	-210.9153	-77.7598	666.7529	28.4994	286.4884	-20.8981	104.1898	10.1016	256.9701	-0.0592	0.0182	-0.0073	-0.0462	0.0165	0.9585
34.6525	-44.3293	605.8287	55.7913	-222.8228	-79.076	698.5007	23.8632	231.5003	-16.3026	84.5302	7.5254	207.4503	-0.0592	0.0182	-0.0073	-0.0462	0.0165	0.9585
34.6643	-41.3288	634.7397	57.203	-233.6016	-79.0498	725.9768	18.6866	180.0696	-12.4795	66.0025	5.7669	161.3051	-0.0592	0.0182	-0.0073	-0.0462	0.0165	0.9585
34.6761	-36.7712	660.8034	58.528	-243.2814	-78.3509	749.6117	13.4128	134.2154	-9.456	49.365	4.7068	120.2794	-0.0592	0.0182	-0.0073	-0.0462	0.0165	0.9585
34.6879	-31.3109	684.1554	60.1521	-251.8794	-77.6575	769.7294	8.6122	95.2656	-7.121	35.1444	4.0799	85.4807	-0.0592	0.0182	-0.0073	-0.0462	0.0165	0.9585
34.6996	-25.6	704.886	62.1034	-259.4198	-77.2534	786.5581	4.6616	63.7288	-5.2916	23.571	3.6202	57.3291	-0.0592	0.0182	-0.0073	-0.0462	0.0165	0.9585
34.7114	-20.0681	723.0965	64.3373	-265.953	-77.2407	800.3511	1.7215	39.4006	-3.8136	14.6119	3.1513	35.6153	-0.0592	0.0182	-0.0073	-0.0462	0.0165	0.9585
34.7232	-14.952	738.9413	66.5277	-271.5695	-77.3542	811.3724	-0.25379	21.6765	-2.58	8.0661	2.5992	19.8205	-0.0592	0.0182	-0.0073	-0.0462	0.0165	0.9585
34.735	-10.3471	752.374	68.3884	-276.2989	-77.3106	819.6479	-1.3813	9.6312	-1.5743	3.609	1.9939	9.1098	-0.0592	0.0182	-0.0073	-0.0462	0.0165	0.9585
34.7468	-6.2403	763.1453	69.6611	-280.0878	-76.8274	824.965	-1.8603	2.2583	-0.79177	0.87206	1.3974	2.6026	-0.0592	0.0182	-0.0073	-0.0462	0.0165	0.9585
34.7586	-2.6119	770.8254	70.2558	-282.8002	-75.7924	826.9059	-1.912	-1.5954	-0.25156	-0.5636	0.89881	-0.76095	-0.0592	0.0182	-0.0073	-0.0462	0.0165	0.9585
